<svg width="104" height="38" viewBox="0 0 343 29" fill="none" xmlns="http://www.w3.org/2000/svg">
<path d="M18.6364 10.2812C18.4574 9.65909 18.206 9.10937 17.8821 8.6321C17.5582 8.14631 17.1619 7.73722 16.6932 7.40483C16.233 7.06392 15.7045 6.80398 15.108 6.625C14.5199 6.44602 13.8679 6.35653 13.152 6.35653C11.8139 6.35653 10.6378 6.68892 9.62358 7.35369C8.6179 8.01846 7.83381 8.98579 7.27131 10.2557C6.70881 11.517 6.42756 13.0597 6.42756 14.8835C6.42756 16.7074 6.70455 18.2585 7.25852 19.5369C7.8125 20.8153 8.59659 21.7912 9.6108 22.4645C10.625 23.1293 11.8224 23.4616 13.2031 23.4616C14.456 23.4616 15.5256 23.2401 16.4119 22.7969C17.3068 22.3452 17.9886 21.7102 18.4574 20.892C18.9347 20.0739 19.1733 19.1065 19.1733 17.9901L20.2983 18.1562H13.5483V13.9886H24.5043V17.2869C24.5043 19.5881 24.0185 21.5653 23.0469 23.2188C22.0753 24.8636 20.7372 26.1335 19.0327 27.0284C17.3281 27.9148 15.3764 28.358 13.1776 28.358C10.723 28.358 8.56676 27.8168 6.70881 26.7344C4.85085 25.6435 3.40199 24.0966 2.36222 22.0938C1.33097 20.0824 0.815341 17.696 0.815341 14.9347C0.815341 12.8125 1.12216 10.9205 1.7358 9.25852C2.35795 7.58807 3.22727 6.1733 4.34375 5.0142C5.46023 3.85511 6.75994 2.97301 8.2429 2.3679C9.72585 1.76278 11.3324 1.46023 13.0625 1.46023C14.5455 1.46023 15.9261 1.67756 17.2045 2.11222C18.483 2.53835 19.6165 3.14347 20.6051 3.92756C21.6023 4.71165 22.4162 5.64489 23.0469 6.72727C23.6776 7.80114 24.0824 8.98579 24.2614 10.2812H18.6364ZM41.1523 19.6392V8.36364H46.5984V28H41.3697V24.4332H41.1651C40.7219 25.5838 39.9847 26.5085 38.9535 27.2074C37.9308 27.9062 36.6822 28.2557 35.2077 28.2557C33.8952 28.2557 32.7404 27.9574 31.7433 27.3608C30.7461 26.7642 29.9663 25.9162 29.4038 24.8168C28.8498 23.7173 28.5685 22.4006 28.56 20.8665V8.36364H34.006V19.8949C34.0146 21.054 34.3256 21.9702 34.9393 22.6435C35.5529 23.3168 36.3754 23.6534 37.4066 23.6534C38.0629 23.6534 38.6765 23.5043 39.2475 23.206C39.8185 22.8991 40.2788 22.4474 40.6282 21.8509C40.9862 21.2543 41.1609 20.517 41.1523 19.6392ZM50.9545 28V8.36364H56.4006V28H50.9545ZM53.6903 5.83239C52.8807 5.83239 52.1861 5.56392 51.6065 5.02699C51.0355 4.48153 50.75 3.82954 50.75 3.07102C50.75 2.32102 51.0355 1.67756 51.6065 1.14062C52.1861 0.59517 52.8807 0.322442 53.6903 0.322442C54.5 0.322442 55.1903 0.59517 55.7614 1.14062C56.3409 1.67756 56.6307 2.32102 56.6307 3.07102C56.6307 3.82954 56.3409 4.48153 55.7614 5.02699C55.1903 5.56392 54.5 5.83239 53.6903 5.83239ZM66.2092 1.81818V28H60.7631V1.81818H66.2092ZM76.0178 16.6477V28H70.5717V1.81818H75.8643V11.8281H76.0945C76.5376 10.669 77.2536 9.76136 78.2422 9.10511C79.2308 8.44034 80.4709 8.10795 81.9624 8.10795C83.326 8.10795 84.5149 8.40625 85.5291 9.00284C86.5518 9.59091 87.3445 10.4389 87.907 11.5469C88.478 12.6463 88.7592 13.9631 88.7507 15.4972V28H83.3047V16.4688C83.3132 15.2585 83.0064 14.3168 82.3842 13.6435C81.7706 12.9702 80.9098 12.6335 79.8018 12.6335C79.0604 12.6335 78.4041 12.7912 77.8331 13.1065C77.2706 13.4219 76.8274 13.8821 76.5036 14.4872C76.1882 15.0838 76.0263 15.804 76.0178 16.6477ZM101.985 28.3835C99.9656 28.3835 98.2269 27.9744 96.7695 27.1562C95.3207 26.3295 94.2042 25.1619 93.4201 23.6534C92.636 22.1364 92.244 20.3423 92.244 18.2713C92.244 16.2514 92.636 14.4787 93.4201 12.9531C94.2042 11.4276 95.3079 10.2386 96.7312 9.38636C98.163 8.53409 99.842 8.10795 101.768 8.10795C103.064 8.10795 104.27 8.31676 105.386 8.73438C106.511 9.14347 107.491 9.76136 108.326 10.5881C109.17 11.4148 109.826 12.4545 110.295 13.7074C110.764 14.9517 110.998 16.4091 110.998 18.0795V19.5753H94.4173V16.2003H105.872C105.872 15.4162 105.701 14.7216 105.36 14.1165C105.02 13.5114 104.547 13.0384 103.941 12.6974C103.345 12.348 102.65 12.1733 101.858 12.1733C101.031 12.1733 100.298 12.3651 99.6587 12.7486C99.0281 13.1236 98.5337 13.6307 98.1758 14.2699C97.8178 14.9006 97.6346 15.6037 97.6261 16.3793V19.5881C97.6261 20.5597 97.805 21.3991 98.163 22.1065C98.5295 22.8139 99.0451 23.3594 99.7099 23.7429C100.375 24.1264 101.163 24.3182 102.075 24.3182C102.68 24.3182 103.234 24.233 103.737 24.0625C104.24 23.892 104.67 23.6364 105.028 23.2955C105.386 22.9545 105.659 22.5369 105.846 22.0426L110.883 22.375C110.627 23.5852 110.103 24.642 109.311 25.5455C108.527 26.4403 107.512 27.1392 106.268 27.642C105.032 28.1364 103.605 28.3835 101.985 28.3835ZM114.552 28V8.36364H119.832V11.7898H120.037C120.395 10.571 120.995 9.65057 121.839 9.02841C122.683 8.39773 123.654 8.08239 124.754 8.08239C125.027 8.08239 125.321 8.09943 125.636 8.13352C125.951 8.16761 126.228 8.21449 126.467 8.27415V13.1065C126.211 13.0298 125.858 12.9616 125.406 12.902C124.954 12.8423 124.541 12.8125 124.166 12.8125C123.365 12.8125 122.649 12.9872 122.018 13.3366C121.396 13.6776 120.902 14.1548 120.535 14.7685C120.177 15.3821 119.998 16.0895 119.998 16.8906V28H114.552ZM129.283 28V8.36364H134.473V11.8281H134.703C135.112 10.6776 135.794 9.76989 136.749 9.10511C137.703 8.44034 138.845 8.10795 140.175 8.10795C141.521 8.10795 142.668 8.4446 143.614 9.1179C144.56 9.78267 145.19 10.6861 145.506 11.8281H145.71C146.111 10.7031 146.835 9.80398 147.884 9.13068C148.94 8.44886 150.189 8.10795 151.629 8.10795C153.462 8.10795 154.949 8.69176 156.091 9.85938C157.241 11.0185 157.817 12.6634 157.817 14.794V28H152.384V15.8679C152.384 14.777 152.094 13.9588 151.514 13.4134C150.935 12.8679 150.21 12.5952 149.341 12.5952C148.352 12.5952 147.581 12.9105 147.027 13.5412C146.473 14.1634 146.196 14.9858 146.196 16.0085V28H140.916V15.7528C140.916 14.7898 140.639 14.0227 140.085 13.4517C139.54 12.8807 138.82 12.5952 137.925 12.5952C137.32 12.5952 136.774 12.7486 136.288 13.0554C135.811 13.3537 135.432 13.7756 135.151 14.321C134.869 14.858 134.729 15.4886 134.729 16.2131V28H129.283ZM171.067 28.3835C169.048 28.3835 167.309 27.9744 165.852 27.1562C164.403 26.3295 163.286 25.1619 162.502 23.6534C161.718 22.1364 161.326 20.3423 161.326 18.2713C161.326 16.2514 161.718 14.4787 162.502 12.9531C163.286 11.4276 164.39 10.2386 165.813 9.38636C167.245 8.53409 168.924 8.10795 170.85 8.10795C172.146 8.10795 173.352 8.31676 174.468 8.73438C175.593 9.14347 176.573 9.76136 177.408 10.5881C178.252 11.4148 178.908 12.4545 179.377 13.7074C179.846 14.9517 180.08 16.4091 180.08 18.0795V19.5753H163.499V16.2003H174.954C174.954 15.4162 174.783 14.7216 174.442 14.1165C174.102 13.5114 173.629 13.0384 173.023 12.6974C172.427 12.348 171.732 12.1733 170.94 12.1733C170.113 12.1733 169.38 12.3651 168.741 12.7486C168.11 13.1236 167.616 13.6307 167.258 14.2699C166.9 14.9006 166.717 15.6037 166.708 16.3793V19.5881C166.708 20.5597 166.887 21.3991 167.245 22.1065C167.612 22.8139 168.127 23.3594 168.792 23.7429C169.457 24.1264 170.245 24.3182 171.157 24.3182C171.762 24.3182 172.316 24.233 172.819 24.0625C173.322 23.892 173.752 23.6364 174.11 23.2955C174.468 22.9545 174.741 22.5369 174.928 22.0426L179.965 22.375C179.71 23.5852 179.185 24.642 178.393 25.5455C177.609 26.4403 176.594 27.1392 175.35 27.642C174.114 28.1364 172.687 28.3835 171.067 28.3835ZM192.069 28V1.81818H202.398C204.384 1.81818 206.076 2.19744 207.473 2.95597C208.871 3.70597 209.936 4.75 210.669 6.08807C211.411 7.41761 211.782 8.9517 211.782 10.6903C211.782 12.429 211.407 13.9631 210.657 15.2926C209.907 16.6222 208.82 17.6577 207.397 18.3991C205.982 19.1406 204.269 19.5114 202.257 19.5114H195.674V15.0753H201.363C202.428 15.0753 203.306 14.892 203.996 14.5256C204.695 14.1506 205.215 13.6349 205.556 12.9787C205.905 12.3139 206.08 11.5511 206.08 10.6903C206.08 9.82102 205.905 9.0625 205.556 8.41477C205.215 7.75852 204.695 7.25142 203.996 6.89347C203.297 6.52699 202.411 6.34375 201.337 6.34375H197.604V28H192.069ZM215.275 28V8.36364H220.721V28H215.275ZM218.011 5.83239C217.201 5.83239 216.506 5.56392 215.927 5.02699C215.356 4.48153 215.07 3.82954 215.07 3.07102C215.07 2.32102 215.356 1.67756 215.927 1.14062C216.506 0.59517 217.201 0.322442 218.011 0.322442C218.82 0.322442 219.511 0.59517 220.082 1.14062C220.661 1.67756 220.951 2.32102 220.951 3.07102C220.951 3.82954 220.661 4.48153 220.082 5.02699C219.511 5.56392 218.82 5.83239 218.011 5.83239ZM225.083 28V8.36364H230.274V11.8281H230.504C230.913 10.6776 231.595 9.76989 232.549 9.10511C233.504 8.44034 234.646 8.10795 235.975 8.10795C237.322 8.10795 238.468 8.4446 239.414 9.1179C240.36 9.78267 240.991 10.6861 241.306 11.8281H241.511C241.912 10.7031 242.636 9.80398 243.684 9.13068C244.741 8.44886 245.99 8.10795 247.43 8.10795C249.262 8.10795 250.75 8.69176 251.892 9.85938C253.042 11.0185 253.618 12.6634 253.618 14.794V28H248.184V15.8679C248.184 14.777 247.895 13.9588 247.315 13.4134C246.735 12.8679 246.011 12.5952 245.142 12.5952C244.153 12.5952 243.382 12.9105 242.828 13.5412C242.274 14.1634 241.997 14.9858 241.997 16.0085V28H236.717V15.7528C236.717 14.7898 236.44 14.0227 235.886 13.4517C235.341 12.8807 234.62 12.5952 233.725 12.5952C233.12 12.5952 232.575 12.7486 232.089 13.0554C231.612 13.3537 231.233 13.7756 230.951 14.321C230.67 14.858 230.529 15.4886 230.529 16.2131V28H225.083ZM266.868 28.3835C264.848 28.3835 263.11 27.9744 261.652 27.1562C260.203 26.3295 259.087 25.1619 258.303 23.6534C257.519 22.1364 257.127 20.3423 257.127 18.2713C257.127 16.2514 257.519 14.4787 258.303 12.9531C259.087 11.4276 260.191 10.2386 261.614 9.38636C263.046 8.53409 264.725 8.10795 266.651 8.10795C267.946 8.10795 269.152 8.31676 270.269 8.73438C271.394 9.14347 272.374 9.76136 273.209 10.5881C274.053 11.4148 274.709 12.4545 275.178 13.7074C275.647 14.9517 275.881 16.4091 275.881 18.0795V19.5753H259.3V16.2003H270.755C270.755 15.4162 270.584 14.7216 270.243 14.1165C269.902 13.5114 269.429 13.0384 268.824 12.6974C268.228 12.348 267.533 12.1733 266.74 12.1733C265.914 12.1733 265.181 12.3651 264.542 12.7486C263.911 13.1236 263.417 13.6307 263.059 14.2699C262.701 14.9006 262.517 15.6037 262.509 16.3793V19.5881C262.509 20.5597 262.688 21.3991 263.046 22.1065C263.412 22.8139 263.928 23.3594 264.593 23.7429C265.257 24.1264 266.046 24.3182 266.958 24.3182C267.563 24.3182 268.117 24.233 268.62 24.0625C269.123 23.892 269.553 23.6364 269.911 23.2955C270.269 22.9545 270.542 22.5369 270.729 22.0426L275.766 22.375C275.51 23.5852 274.986 24.642 274.194 25.5455C273.409 26.4403 272.395 27.1392 271.151 27.642C269.915 28.1364 268.488 28.3835 266.868 28.3835ZM284.881 16.6477V28H279.435V8.36364H284.625V11.8281H284.855C285.29 10.6861 286.019 9.78267 287.042 9.1179C288.064 8.4446 289.304 8.10795 290.762 8.10795C292.125 8.10795 293.314 8.40625 294.328 9.00284C295.343 9.59943 296.131 10.4517 296.694 11.5597C297.256 12.6591 297.537 13.9716 297.537 15.4972V28H292.091V16.4688C292.1 15.267 291.793 14.3295 291.171 13.6562C290.549 12.9744 289.692 12.6335 288.601 12.6335C287.868 12.6335 287.221 12.7912 286.658 13.1065C286.104 13.4219 285.669 13.8821 285.354 14.4872C285.047 15.0838 284.89 15.804 284.881 16.6477ZM312.274 8.36364V12.4545H300.449V8.36364H312.274ZM303.134 3.65909H308.58V21.9659C308.58 22.4687 308.656 22.8608 308.81 23.142C308.963 23.4148 309.176 23.6065 309.449 23.7173C309.73 23.8281 310.054 23.8835 310.42 23.8835C310.676 23.8835 310.932 23.8622 311.188 23.8196C311.443 23.7685 311.639 23.7301 311.776 23.7045L312.632 27.7571C312.359 27.8423 311.976 27.9403 311.482 28.0511C310.987 28.1705 310.386 28.2429 309.679 28.2685C308.366 28.3196 307.216 28.1449 306.227 27.7443C305.247 27.3437 304.484 26.7216 303.939 25.8778C303.393 25.0341 303.125 23.9687 303.134 22.6818V3.65909ZM324.56 28.3835C322.54 28.3835 320.801 27.9744 319.344 27.1562C317.895 26.3295 316.778 25.1619 315.994 23.6534C315.21 22.1364 314.818 20.3423 314.818 18.2713C314.818 16.2514 315.21 14.4787 315.994 12.9531C316.778 11.4276 317.882 10.2386 319.305 9.38636C320.737 8.53409 322.416 8.10795 324.342 8.10795C325.638 8.10795 326.844 8.31676 327.96 8.73438C329.085 9.14347 330.065 9.76136 330.901 10.5881C331.744 11.4148 332.401 12.4545 332.869 13.7074C333.338 14.9517 333.572 16.4091 333.572 18.0795V19.5753H316.991V16.2003H328.446C328.446 15.4162 328.276 14.7216 327.935 14.1165C327.594 13.5114 327.121 13.0384 326.516 12.6974C325.919 12.348 325.224 12.1733 324.432 12.1733C323.605 12.1733 322.872 12.3651 322.233 12.7486C321.602 13.1236 321.108 13.6307 320.75 14.2699C320.392 14.9006 320.209 15.6037 320.2 16.3793V19.5881C320.2 20.5597 320.379 21.3991 320.737 22.1065C321.104 22.8139 321.619 23.3594 322.284 23.7429C322.949 24.1264 323.737 24.3182 324.649 24.3182C325.254 24.3182 325.808 24.233 326.311 24.0625C326.814 23.892 327.244 23.6364 327.602 23.2955C327.96 22.9545 328.233 22.5369 328.42 22.0426L333.457 22.375C333.202 23.5852 332.678 24.642 331.885 25.5455C331.101 26.4403 330.087 27.1392 328.842 27.642C327.607 28.1364 326.179 28.3835 324.56 28.3835ZM342.572 1.81818V28H337.126V1.81818H342.572Z" fill="black"/>
</svg>
